<?xml version="1.0" encoding="UTF-8"?>
<svg width="526px" height="123px" viewBox="0 0 526 123" version="1.1" xmlns="http://www.w3.org/2000/svg" xmlns:xlink="http://www.w3.org/1999/xlink">
    <!-- Generator: Sketch 48 (47235) - http://www.bohemiancoding.com/sketch -->
    <title>Page 1 Copy</title>
    <desc>Created with Sketch.</desc>
    <defs>
        <polygon id="path-1" points="0.0011069829 0.0542421621 58.3926099 0.0542421621 58.3926099 58.3010993 0.0011069829 58.3010993"></polygon>
    </defs>
    <g id="Viaggi" stroke="none" stroke-width="1" fill="none" fill-rule="evenodd" transform="translate(-1387.000000, -3693.000000)">
        <g id="Page-1-Copy" transform="translate(1387.000000, 3679.000000)">
            <path d="M319.625407,94.8544627 C321.887038,91.4287975 323.593244,88.8463998 325.800421,85.504886 C332.264038,89.424941 338.230314,93.0434534 345.07329,97.1949249 C343.147455,100.475078 341.475736,103.318696 339.384726,106.881107 C332.558087,102.72613 326.352216,98.9498333 319.625407,94.8544627" id="Fill-1" fill="#E5E5E5"></path>
            <path d="M68.2003257,64.40184 C74.708123,58.9101666 80.2833615,54.2032862 86.6137898,48.8599349 C89.1792406,52.3520759 91.2564695,55.1777062 93.6482085,58.4314053 C87.4860065,63.5907621 81.8997967,68.2713576 75.905821,73.2899023 C73.35317,70.3459898 71.1790281,67.8376562 68.2003257,64.40184" id="Fill-3" fill="#E5E5E5"></path>
            <path d="M431.596091,123.811903 C431.242247,128.001867 430.986079,131.044623 430.619335,135.382736 C422.644948,134.547023 415.263987,133.775887 407.166124,132.928777 C407.637916,128.670437 408.000974,125.397859 408.474609,121.131922 C416.174398,122.024616 423.291819,122.848933 431.596091,123.811903" id="Fill-5" fill="#E5E5E5"></path>
            <path d="M455.394867,136.400651 C454.894278,132.115103 454.500157,128.731159 453.990228,124.348035 C461.921211,123.24152 469.151742,122.232582 477.06031,121.131922 C477.863495,125.220366 478.522854,128.561377 479.438111,133.219666 C471.198929,134.310568 463.693821,135.303895 455.394867,136.400651" id="Fill-7" fill="#E5E5E5"></path>
            <path d="M502.919951,127.239414 C501.712353,122.830293 500.852615,119.685483 499.796417,115.832434 C507.009564,113.110314 513.582865,110.628657 520.814036,107.899023 C522.295597,111.566089 523.517614,114.586909 525.2443,118.857012 C517.83289,121.641127 511.000046,124.205443 502.919951,127.239414" id="Fill-9" fill="#E5E5E5"></path>
            <path d="M261.766616,53.9495114 C254.781383,49.9577848 248.843483,46.5642734 242.263844,42.8063946 C243.770852,39.6267904 245.130043,36.7535449 247.109343,32.5732899 C254.098182,36.4816289 260.643571,40.141618 267.711726,44.0934635 C265.525123,47.7190099 263.886522,50.436357 261.766616,53.9495114" id="Fill-13" fill="#E5E5E5"></path>
            <path d="M386.807818,117.156785 C385.365007,121.235789 384.272195,124.323406 382.881511,128.257329 C375.133154,125.264572 368.094101,122.547096 360.34202,119.554339 C362.03802,115.689237 363.335619,112.73368 365.009279,108.916938 C372.228916,111.645574 378.998024,114.204948 386.807818,117.156785" id="Fill-15" fill="#E5E5E5"></path>
            <path d="M105.863192,35.6785141 C113.734864,31.6141682 120.367782,28.1908624 127.653927,24.4299674 C129.308039,28.2287938 130.623644,31.2481305 132.32899,35.1588544 C125.847944,38.6466435 119.778596,41.9144307 112.545513,45.8061889 C110.649871,42.9347845 108.739591,40.0387247 105.863192,35.6785141" id="Fill-17" fill="#E5E5E5"></path>
            <path d="M176.099349,26.0181075 C168.083004,26.9412523 161.679591,27.6775257 154.529176,28.5016287 C153.70227,25.263147 152.892087,22.0863329 151.669381,17.2968184 C160.020204,16.2540759 167.700212,15.2972943 176.099349,14.2508143 L176.099349,26.0181075 Z" id="Fill-19" fill="#E5E5E5"></path>
            <path d="M198.493485,26.9116178 C199.204767,23.3172638 199.754146,20.5446254 200.598225,16.286645 C208.500548,18.3122693 215.822568,20.1884908 223.941368,22.2714441 C222.413294,26.3087948 221.316356,29.2065147 220.042961,32.5732899 C212.842824,30.6814332 206.219353,28.9407166 198.493485,26.9116178" id="Fill-21" fill="#E5E5E5"></path>
            <path d="M298.51454,80.4153094 C291.578485,75.5277002 286.050271,71.6336087 279.92671,67.318294 C282.03847,64.2062199 283.790127,61.6255623 286.234846,58.0211726 C292.789083,62.5408782 298.753402,66.6518019 305.374593,71.2159402 C302.906349,74.525296 300.890496,77.2285882 298.51454,80.4153094" id="Fill-23" fill="#E5E5E5"></path>
            <g id="Group-27" transform="translate(0.000000, 77.361564)">
                <mask id="mask-2" fill="white">
                    <use xlink:href="#path-1"></use>
                </mask>
                <g id="Clip-26"></g>
                <path d="M39.2879301,29.8560668 C45.2176685,36.8042294 50.3485342,42.8114566 55.8889836,49.3039113 C52.4296621,52.4145333 49.5127621,55.0343928 45.8781683,58.3018373 C40.072043,52.0289342 34.5445083,46.0549165 28.4653273,39.4905079 C22.0226868,45.0088177 16.0412892,50.1304586 9.15585556,56.0288325 C6.27770002,52.8720862 3.52684752,49.8537128 0.0011069829,45.9866526 C6.38655334,40.134403 12.3771758,34.6437678 18.9120648,28.6549903 C13.4583291,22.1846753 8.20385026,15.9505166 2.39772496,9.06323799 C5.8644264,6.0135001 8.97135841,3.28109731 12.6391617,0.0542421621 C18.5541404,6.62603064 24.0078761,12.684917 29.8103115,19.1330924 C36.3691852,13.4579601 42.3561177,8.2791251 49.1160932,2.43056545 C52.2470099,5.82900295 55.0569015,8.87689587 58.3926099,12.4967299 C52.0182334,18.2880955 45.957502,23.7953354 39.2879301,29.8560668" id="Fill-25" fill="#E5E5E5" mask="url(#mask-2)"></path>
            </g>
        </g>
    </g>
</svg>