<?xml version="1.0" encoding="UTF-8"?>
<svg width="465px" height="140px" viewBox="0 0 465 140" version="1.1" xmlns="http://www.w3.org/2000/svg" xmlns:xlink="http://www.w3.org/1999/xlink">
    <!-- Generator: Sketch 48 (47235) - http://www.bohemiancoding.com/sketch -->
    <title>Page 1</title>
    <desc>Created with Sketch.</desc>
    <defs></defs>
    <g id="Home-Page" stroke="none" stroke-width="1" fill="none" fill-rule="evenodd" transform="translate(0.000000, -1249.000000)">
        <g id="Page-1" transform="translate(-177.000000, 1249.000000)">
            <path d="M328,97.6224063 C330.399572,94.0967768 332.209843,91.4390224 334.551641,88 C341.409486,92.034446 347.739658,95.75855 355,100.031165 C352.956705,103.407037 351.183024,106.333634 348.964479,110 C341.721469,105.723776 335.13709,101.837284 328,97.6224063" id="Fill-1" fill="#E5E5E5"></path>
            <path d="M444,127.820872 C443.6379,132.231108 443.375754,135.433826 443.000453,140 C434.839997,139.120352 427.286814,138.308677 419,137.417033 C419.4828,132.934826 419.85433,129.490204 420.339016,125 C428.218467,125.939624 435.501961,126.807277 444,127.820872" id="Fill-5" fill="#E5E5E5"></path>
            <path d="M468.435115,140 C467.923664,135.789877 467.520992,132.465491 467,128.159509 C475.103053,127.072469 482.490458,126.081288 490.570611,125 C491.391221,129.016488 492.064885,132.298696 493,136.875 C484.582061,137.946702 476.914122,138.922546 468.435115,140" id="Fill-7" fill="#E5E5E5"></path>
            <path d="M516.314045,131 C515.032793,126.440505 514.120618,123.188441 513,119.203983 C520.653092,116.389024 527.627311,113.822729 535.299525,111 C536.87145,114.792132 538.168001,117.915979 540,122.331714 C532.136554,125.210782 524.886961,127.862555 516.314045,131" id="Fill-9" fill="#E5E5E5"></path>
            <path d="M562.958032,110 C560.710015,106.185491 559.165485,103.562902 557,99.8861341 C563.991649,95.9449036 570.751421,92.1322314 578.075163,88 C580.421433,91.302112 582.345217,94.0128558 585,97.748393 C577.570145,101.876951 570.737666,105.676768 562.958032,110" id="Fill-11" fill="#E5E5E5"></path>
            <path d="M268.692286,54 C261.281009,50.0785278 254.980945,46.7447422 248,43.053002 C249.598923,39.9293589 251.041014,37.1066825 253.141036,33 C260.556138,36.8395522 267.500744,40.4351255 275,44.3174186 C272.680031,47.8791554 270.941489,50.5486771 268.692286,54" id="Fill-13" fill="#E5E5E5"></path>
            <path d="M398,120.520869 C396.473551,124.738988 395.317389,127.93191 393.846089,132 C385.648565,128.905174 378.201463,126.095018 370,123.000192 C371.794316,119.00327 373.167136,115.946913 374.937817,112 C382.575971,114.821696 389.737479,117.468359 398,120.520869" id="Fill-15" fill="#E5E5E5"></path>
            <path d="M181,27.3859166 C172.796608,28.3575924 166.243782,29.1325728 158.926523,30 C158.080323,26.5912667 157.251236,23.247443 156,18.2061369 C164.545676,17.1085759 172.404883,16.1014949 181,15 L181,27.3859166 Z" id="Fill-19" fill="#E5E5E5"></path>
            <path d="M204,28.0903467 C204.754664,24.33856 205.337551,21.44448 206.233112,17 C214.617414,19.1143467 222.386018,21.0727467 231,23.2469333 C229.378726,27.46112 228.214883,30.48576 226.863822,34 C219.224534,32.02528 212.197083,30.20832 204,28.0903467" id="Fill-21" fill="#E5E5E5"></path>
            <path d="M307.721539,82 C300.36244,76.9801587 294.497049,72.9807143 288,68.5486508 C290.24056,65.352381 292.099054,62.7019048 294.692882,59 C301.646875,63.6419841 307.97497,67.864127 315,72.551746 C312.381213,75.9506349 310.242409,78.7270635 307.721539,82" id="Fill-23" fill="#E5E5E5"></path>
            <path d="M609.000939,49.9422693 C599.886483,49.9422693 592.499531,42.4893868 592.499531,33.2954777 C592.499531,24.0996741 599.886483,16.6467916 609.000939,16.6467916 C618.113517,16.6467916 625.500469,24.0996741 625.500469,33.2954777 C625.500469,42.4893868 618.113517,49.9422693 609.000939,49.9422693 M609.000939,0 C590.775783,0 576,14.9057649 576,33.2954777 C576,56.8381748 609.000939,93 609.000939,93 C609.000939,93 642,56.8381748 642,33.2954777 C642,14.9057649 627.226095,0 609.000939,0" id="Fill-28" fill="#DEDAD7"></path>
        </g>
    </g>
</svg>