<?xml version="1.0" encoding="UTF-8"?>
<svg width="20px" height="20px" viewBox="0 0 20 20" version="1.1" xmlns="http://www.w3.org/2000/svg" xmlns:xlink="http://www.w3.org/1999/xlink">
    <!-- Generator: Sketch 52 (66869) - http://www.bohemiancoding.com/sketch -->
    <title>Fill 1</title>
    <desc>Created with Sketch.</desc>
    <g id="Home-Page" stroke="none" stroke-width="1" fill="none" fill-rule="evenodd">
        <g transform="translate(-1472.000000, -4862.000000)" fill="#FFFFFF" id="Group-19">
            <g transform="translate(0.000000, 4760.000000)">
                <g id="Group-6">
                    <path d="M1473.10385,102 C1472.49411,102 1472,102.494108 1472,103.103846 L1472,120.896309 C1472,121.505815 1472.49403,122.000155 1473.10385,122.000155 L1482.68265,122.000155 L1482.68265,114.254993 L1480.0763,114.254993 L1480.0763,111.236566 L1482.68265,111.236566 L1482.68265,109.010558 C1482.68265,106.427337 1484.26035,105.020678 1486.56481,105.020678 C1487.66866,105.020678 1488.61745,105.102861 1488.89388,105.139645 L1488.89388,107.839351 L1487.29554,107.840049 C1486.04238,107.840049 1485.79971,108.435586 1485.79971,109.309491 L1485.79971,111.236566 L1488.78865,111.236566 L1488.39938,114.254993 L1485.79971,114.254993 L1485.79971,122.000155 L1490.89623,122.000155 C1491.50574,122.000155 1492,121.505892 1492,120.896309 L1492,103.103846 C1492,102.494108 1491.50581,102 1490.89623,102 L1473.10385,102 Z" id="Fill-1"></path>
                </g>
            </g>
        </g>
    </g>
</svg>