<?xml version="1.0" encoding="UTF-8"?>
<svg width="22px" height="23px" viewBox="0 0 22 23" version="1.1" xmlns="http://www.w3.org/2000/svg" xmlns:xlink="http://www.w3.org/1999/xlink">
    <!-- Generator: Sketch 52 (66869) - http://www.bohemiancoding.com/sketch -->
    <title>Page 1</title>
    <desc>Created with Sketch.</desc>
    <defs>
        <polygon id="path-1" points="0 0.0722418605 21.9275535 0.0722418605 21.9275535 22 0 22"></polygon>
    </defs>
    <g id="Viaggi---Viaggio-singolo" stroke="none" stroke-width="1" fill="none" fill-rule="evenodd">
        <g transform="translate(-1501.000000, -2795.000000)" id="Group-19">
            <g transform="translate(0.000000, 2694.000000)">
                <g id="Page-1" transform="translate(1501.000000, 101.000000)">
                    <path d="M16.7692186,4.42670698 C16.0590791,4.42670698 15.4834977,5.00228837 15.4834977,5.71242791 C15.4834977,6.42205581 16.0590791,6.99763721 16.7692186,6.99763721 C17.4793581,6.99763721 18.0549395,6.42205581 18.0549395,5.71242791 C18.0549395,5.00228837 17.4793581,4.42670698 16.7692186,4.42670698" id="Fill-1" fill="#FFFFFF"></path>
                    <path d="M11.0538744,14.9348279 C9.14652558,14.9348279 7.59475814,13.3830605 7.59475814,11.4757116 C7.59475814,9.56836279 9.14652558,8.01659535 11.0538744,8.01659535 C12.9612233,8.01659535 14.5129907,9.56836279 14.5129907,11.4757116 C14.5129907,13.3830605 12.9612233,14.9348279 11.0538744,14.9348279 M11.0538744,6.07547907 C8.0762,6.07547907 5.65364186,8.49803721 5.65364186,11.4757116 C5.65364186,14.453386 8.0762,16.8754326 11.0538744,16.8754326 C14.0315488,16.8754326 16.454107,14.453386 16.454107,11.4757116 C16.454107,8.49803721 14.0315488,6.07547907 11.0538744,6.07547907" id="Fill-3" fill="#FFFFFF"></path>
                    <g id="Group-7" transform="translate(0.000000, 0.439437)">
                        <mask id="mask-2" fill="white">
                            <use xlink:href="#path-1"></use>
                        </mask>
                        <g id="Clip-6"></g>
                        <path d="M6.5863907,2.13512558 C4.09220465,2.13512558 2.06308837,4.16424186 2.06308837,6.65842791 L2.06308837,15.4134047 C2.06308837,17.9081023 4.09220465,19.9372186 6.5863907,19.9372186 L15.3408558,19.9372186 C17.8355535,19.9372186 19.8651814,17.9081023 19.8651814,15.4134047 L19.8651814,6.65842791 C19.8651814,4.16424186 17.8355535,2.13512558 15.3408558,2.13512558 L6.5863907,2.13512558 Z M15.3408558,22.0001023 L6.5863907,22.0001023 C2.95434419,22.0001023 -0.000306976744,19.0454512 -0.000306976744,15.4134047 L-0.000306976744,6.65842791 C-0.000306976744,3.02689302 2.95434419,0.0722418605 6.5863907,0.0722418605 L15.3408558,0.0722418605 C18.9729023,0.0722418605 21.9275535,3.02689302 21.9275535,6.65842791 L21.9275535,15.4134047 C21.9275535,19.0454512 18.9729023,22.0001023 15.3408558,22.0001023 Z" id="Fill-5" fill="#FFFFFF" mask="url(#mask-2)"></path>
                    </g>
                </g>
            </g>
        </g>
    </g>
</svg>