<?xml version="1.0" encoding="UTF-8"?>
<svg width="22px" height="25px" viewBox="0 0 22 25" version="1.1" xmlns="http://www.w3.org/2000/svg" xmlns:xlink="http://www.w3.org/1999/xlink">
    <!-- Generator: Sketch 52 (66869) - http://www.bohemiancoding.com/sketch -->
    <title>Page 1</title>
    <desc>Created with Sketch.</desc>
    <defs>
        <polygon id="path-1" points="0 0 22 0 22 24.64 0 24.64"></polygon>
    </defs>
    <g id="Home-Page" stroke="none" stroke-width="1" fill="none" fill-rule="evenodd">
        <g transform="translate(-525.000000, -1575.000000)" id="Group-5">
            <g transform="translate(425.000000, 1469.000000)">
                <g id="Page-1" transform="translate(100.000000, 106.000000)">
                    <mask id="mask-2" fill="white">
                        <use xlink:href="#path-1"></use>
                    </mask>
                    <g id="Clip-2"></g>
                    <path d="M19.6428571,22.04125 L19.6428571,7.7 L2.35714286,7.7 L2.35714286,22.04125 C2.35714286,22.2000625 2.48973214,22.33 2.65178571,22.33 L19.3482143,22.33 C19.5102679,22.33 19.6428571,22.2000625 19.6428571,22.04125 M22,5.39 L22,22.33 C22,23.6053125 20.9441964,24.64 19.6428571,24.64 L2.35714286,24.64 C1.05580357,24.64 0,23.6053125 0,22.33 L0,5.39 C0,4.1146875 1.05580357,3.08 2.35714286,3.08 L4.71428571,3.08 L4.71428571,0.5775 C4.71428571,0.259875 4.97946429,0 5.30357143,0 L7.26785714,0 C7.59196429,0 7.85714286,0.259875 7.85714286,0.5775 L7.85714286,3.08 L14.1428571,3.08 L14.1428571,0.5775 C14.1428571,0.259875 14.4080357,0 14.7321429,0 L16.6964286,0 C17.0205357,0 17.2857143,0.259875 17.2857143,0.5775 L17.2857143,3.08 L19.6428571,3.08 C20.9441964,3.08 22,4.1146875 22,5.39 M17.2857143,17.9025 L17.2857143,15.9775 C17.2857143,15.659875 17.0205357,15.4 16.6964286,15.4 L14.7321429,15.4 C14.4080357,15.4 14.1428571,15.659875 14.1428571,15.9775 L14.1428571,17.9025 C14.1428571,18.2201731 14.4080357,18.48 14.7321429,18.48 L16.6964286,18.48 C17.0205357,18.48 17.2857143,18.2201731 17.2857143,17.9025 M7.85714286,17.9025 L7.85714286,15.9775 C7.85714286,15.659875 7.59196429,15.4 7.26785714,15.4 L5.30357143,15.4 C4.97946429,15.4 4.71428571,15.659875 4.71428571,15.9775 L4.71428571,17.9025 C4.71428571,18.2201731 4.97946429,18.48 5.30357143,18.48 L7.26785714,18.48 C7.59196429,18.48 7.85714286,18.2201731 7.85714286,17.9025 M12.5714286,17.9025 L12.5714286,15.9775 C12.5714286,15.659875 12.30625,15.4 11.9821429,15.4 L10.0178571,15.4 C9.69375,15.4 9.42857143,15.659875 9.42857143,15.9775 L9.42857143,17.9025 C9.42857143,18.2201731 9.69375,18.48 10.0178571,18.48 L11.9821429,18.48 C12.30625,18.48 12.5714286,18.2201731 12.5714286,17.9025 M17.2857143,13.2825 L17.2857143,11.3575 C17.2857143,11.039875 17.0205357,10.78 16.6964286,10.78 L14.7321429,10.78 C14.4080357,10.78 14.1428571,11.039875 14.1428571,11.3575 L14.1428571,13.2825 C14.1428571,13.6001731 14.4080357,13.86 14.7321429,13.86 L16.6964286,13.86 C17.0205357,13.86 17.2857143,13.6001731 17.2857143,13.2825 M12.5714286,13.2825 L12.5714286,11.3575 C12.5714286,11.039875 12.30625,10.78 11.9821429,10.78 L10.0178571,10.78 C9.69375,10.78 9.42857143,11.039875 9.42857143,11.3575 L9.42857143,13.2825 C9.42857143,13.6001731 9.69375,13.86 10.0178571,13.86 L11.9821429,13.86 C12.30625,13.86 12.5714286,13.6001731 12.5714286,13.2825 M7.26785714,13.86 L5.30357143,13.86 C4.97946429,13.86 4.71428571,13.6001731 4.71428571,13.2825 L4.71428571,11.3575 C4.71428571,11.039875 4.97946429,10.78 5.30357143,10.78 L7.26785714,10.78 C7.59196429,10.78 7.85714286,11.039875 7.85714286,11.3575 L7.85714286,13.2825 C7.85714286,13.6001731 7.59196429,13.86 7.26785714,13.86" id="Fill-1" fill="#FFFFFF" mask="url(#mask-2)"></path>
                </g>
            </g>
        </g>
    </g>
</svg>