<svg width="465" height="140" xmlns="http://www.w3.org/2000/svg"><g fill="none" fill-rule="evenodd"><path d="M151 97.622L157.552 88 178 100.031 171.964 110 151 97.622m116 30.198c-.362 4.411-.624 7.614-1 12.18-8.16-.88-15.713-1.691-24-2.583L243.339 125 267 127.82M291.435 140L290 128.16c8.103-1.088 15.49-2.079 23.57-3.16.821 4.016 1.495 7.299 2.43 11.875A74654.49 74654.49 0 0 1 291.435 140m47.879-9c-1.281-4.56-2.193-7.812-3.314-11.796L358.3 111c1.571 3.792 2.868 6.916 4.7 11.332-7.863 2.879-15.113 5.53-23.686 8.668m46.644-21L380 99.886A60470.32 60470.32 0 0 0 401.075 88c2.346 3.302 4.27 6.013 6.925 9.748-7.43 4.129-14.262 7.929-22.042 12.252M91.692 54C84.281 50.079 77.981 46.745 71 43.053c1.599-3.124 3.041-5.946 5.141-10.053L98 44.317 91.692 54M221 120.52L216.846 132c-8.197-3.095-15.645-5.905-23.846-9l4.938-11L221 120.52M4 27.386L-18.073 30-21 18.206C-12.454 17.11-4.595 16.101 4 15v12.386zm23 .704L29.233 17c8.384 2.114 16.153 4.073 24.767 6.247L49.864 34 27 28.09M130.722 82L111 68.549c2.24-3.197 4.1-5.847 6.693-9.549 6.954 4.642 13.282 8.864 20.307 13.552-2.619 3.399-4.758 6.175-7.278 9.448" fill="#E5E5E5"/><path d="M432 49.942c-9.114 0-16.5-7.453-16.5-16.647 0-9.195 7.386-16.648 16.5-16.648s16.5 7.453 16.5 16.648c0 9.194-7.386 16.647-16.5 16.647M432 0c-18.224 0-33 14.906-33 33.295C399 56.838 432 93 432 93s33-36.162 33-59.705C465 14.905 450.226 0 432 0" fill="#DEDAD7"/></g></svg>