<svg width="526" height="123" xmlns="http://www.w3.org/2000/svg" xmlns:xlink="http://www.w3.org/1999/xlink"><defs><path id="a" d="M.001.054h58.392v58.247H0z"/></defs><g fill="none" fill-rule="evenodd"><path d="M319.625 80.854l6.175-9.35 19.273 11.69-5.688 9.687c-6.827-4.155-13.033-7.931-19.76-12.027M68.2 50.402L86.614 34.86c2.565 3.492 4.642 6.318 7.034 9.571L75.906 59.29 68.2 50.402m363.396 59.41l-.977 11.57-23.453-2.453 1.309-11.797 23.121 2.68m23.799 12.588l-1.405-12.052c7.931-1.106 15.162-2.115 23.07-3.216.803 4.088 1.463 7.43 2.378 12.088-8.24 1.09-15.744 2.084-24.043 3.18m47.525-9.16c-1.208-4.41-2.067-7.555-3.124-11.408l21.018-7.933 4.43 10.958c-7.411 2.784-14.244 5.348-22.324 8.382M261.767 39.95c-6.986-3.992-12.924-7.386-19.503-11.144 1.507-3.18 2.866-6.052 4.845-10.233l20.603 11.52-5.945 9.857m125.041 63.207c-1.443 4.079-2.536 7.166-3.926 11.1l-22.54-8.703c1.696-3.865 2.994-6.82 4.667-10.637l21.799 8.24M105.863 21.679l21.79-11.249c1.655 3.799 2.97 6.818 4.676 10.729l-19.783 10.647c-1.896-2.871-3.806-5.767-6.683-10.127m70.237-9.661l-21.57 2.484c-.828-3.239-1.638-6.416-2.86-11.205 8.35-1.043 16.03-2 24.43-3.046v11.767zm22.393.894l2.105-10.625c7.903 2.025 15.225 3.901 23.343 5.984l-3.898 10.302-21.55-5.661m100.022 53.503c-6.937-4.887-12.465-8.781-18.588-13.097l6.308-9.297c6.554 4.52 12.518 8.63 19.14 13.195-2.469 3.31-4.485 6.013-6.86 9.2" fill="#E5E5E5"/><g transform="translate(0 63.362)"><mask id="b" fill="#fff"><use xlink:href="#a"/></mask><path d="M39.288 29.856c5.93 6.948 11.06 12.955 16.601 19.448-3.46 3.11-6.376 5.73-10.01 8.998-5.807-6.273-11.334-12.247-17.414-18.811L9.155 56.029.002 45.987l18.911-17.332L2.398 9.063 12.639.054c5.915 6.572 11.369 12.63 17.171 19.08L49.116 2.43l9.277 10.066c-6.375 5.791-12.435 11.298-19.105 17.36" fill="#E5E5E5" mask="url(#b)"/></g></g></svg>