<svg width="22" height="25" xmlns="http://www.w3.org/2000/svg" xmlns:xlink="http://www.w3.org/1999/xlink"><defs><path id="a" d="M0 0h22v24.64H0z"/></defs><g fill="none" fill-rule="evenodd"><mask id="b" fill="#fff"><use xlink:href="#a"/></mask><path d="M19.643 22.041V7.7H2.357v14.341c0 .16.133.289.295.289h16.696c.162 0 .295-.13.295-.289M22 5.39v16.94c0 1.275-1.056 2.31-2.357 2.31H2.357C1.056 24.64 0 23.605 0 22.33V5.39c0-1.275 1.056-2.31 2.357-2.31h2.357V.578c0-.318.265-.578.59-.578h1.964c.324 0 .59.26.59.578V3.08h6.285V.578c0-.318.265-.578.59-.578h1.963c.325 0 .59.26.59.578V3.08h2.357C20.944 3.08 22 4.115 22 5.39m-4.714 12.512v-1.925a.585.585 0 0 0-.59-.577h-1.964c-.324 0-.59.26-.59.577v1.925c0 .318.266.578.59.578h1.964c.325 0 .59-.26.59-.578m-9.429 0v-1.925a.585.585 0 0 0-.59-.577H5.305c-.325 0-.59.26-.59.577v1.925c0 .318.265.578.59.578h1.964c.324 0 .59-.26.59-.578m4.713 0v-1.925a.585.585 0 0 0-.589-.577h-1.964c-.324 0-.59.26-.59.577v1.925c0 .318.266.578.59.578h1.964c.324 0 .59-.26.59-.578m4.714-4.62v-1.925a.585.585 0 0 0-.59-.577h-1.964c-.324 0-.59.26-.59.578v1.925c0 .317.266.577.59.577h1.964c.325 0 .59-.26.59-.577m-4.715 0v-1.925a.585.585 0 0 0-.589-.578h-1.964c-.324 0-.59.26-.59.578v1.925c0 .317.266.577.59.577h1.964c.324 0 .59-.26.59-.577m-5.304.577H5.304a.585.585 0 0 1-.59-.577v-1.925c0-.318.265-.578.59-.578h1.964c.324 0 .59.26.59.578v1.925a.585.585 0 0 1-.59.577" fill="#FFF" mask="url(#b)"/></g></svg>