<svg width="22" height="23" xmlns="http://www.w3.org/2000/svg" xmlns:xlink="http://www.w3.org/1999/xlink"><defs><path id="a" d="M0 .072h21.928V22H0z"/></defs><g fill="none" fill-rule="evenodd"><path d="M16.77 4.427a1.286 1.286 0 1 0 0 2.571 1.286 1.286 0 0 0 0-2.571m-5.716 10.508a3.463 3.463 0 0 1-3.46-3.46 3.463 3.463 0 0 1 3.46-3.458 3.463 3.463 0 0 1 3.459 3.459 3.463 3.463 0 0 1-3.46 3.459m0-8.86a5.406 5.406 0 0 0-5.4 5.4c0 2.978 2.423 5.4 5.4 5.4a5.406 5.406 0 0 0 5.401-5.4c0-2.977-2.422-5.4-5.4-5.4" fill="#FFF"/><g transform="translate(0 .44)"><mask id="b" fill="#fff"><use xlink:href="#a"/></mask><path d="M6.586 2.135a4.528 4.528 0 0 0-4.523 4.523v8.755a4.528 4.528 0 0 0 4.523 4.524h8.755a4.529 4.529 0 0 0 4.524-4.524V6.658a4.529 4.529 0 0 0-4.524-4.523H6.586zM15.341 22H6.586A6.594 6.594 0 0 1 0 15.413V6.658A6.594 6.594 0 0 1 6.586.072h8.755a6.594 6.594 0 0 1 6.587 6.586v8.755A6.594 6.594 0 0 1 15.34 22z" fill="#FFF" mask="url(#b)"/></g></g></svg>